<?xml version="1.0" encoding="utf-8"?>
<!-- Generator: Adobe Illustrator 27.8.0, SVG Export Plug-In . SVG Version: 6.00 Build 0)  -->
<svg version="1.1" id="Layer_1" xmlns="http://www.w3.org/2000/svg" xmlns:xlink="http://www.w3.org/1999/xlink" x="0px" y="0px"
	 viewBox="0 0 300 94.6" style="enable-background:new 0 0 300 94.6;" xml:space="preserve">
<style type="text/css">
	.st0{fill:none;stroke:#1E1938;stroke-width:1.1758;stroke-linecap:round;stroke-linejoin:round;stroke-miterlimit:10;}
	.st1{fill:#1E1938;}
	.st2{fill:#282161;}
	.st3{clip-path:url(#SVGID_00000163764054566624179970000013280776527502252210_);}
	.st4{fill:#F6D239;}
	.st5{fill:#2BB5A1;}
	.st6{fill:#139779;}
	.st7{fill:#005880;}
	.st8{fill:#2BB7C7;}
	.st9{fill:#39486E;}
	.st10{clip-path:url(#SVGID_00000021086991496050488790000010072491514889235897_);}
	.st11{fill:none;}
	.st12{fill:#5EBA47;}
	.st13{fill:#F37B20;}
	.st14{fill:#EC228F;}
	.st15{fill:#B32734;}
	.st16{fill:#8C3192;}
	.st17{fill:#1E1938;stroke:#FFFFFF;stroke-width:0.4089;}
</style>
<line class="st0" x1="99.9" y1="17.3" x2="99.9" y2="77.2"/>
<g>
	<path class="st1" d="M13.9,56.9l17.5-17.5c3.7-3.7,5.7-6.8,5.7-10c0-4.2-3.1-7.1-7.5-7.1c-4.1,0-7.3,1.9-11.4,4.3l-5.3-10.5
		c6.7-3.8,13.3-5.8,19.7-5.8c10.9,0,18.5,7,18.5,17c0,5.8-2.7,11.4-8,16.8L32.7,54.5h26.1v11.3H13.9V56.9z"/>
	<g>
		<g>
			<path class="st2" d="M59,10.3c13.8,0,21.4,10.3,21.4,27.7S72.8,65.8,59,65.8S37.6,55.5,37.6,38.1S45.2,10.3,59,10.3z M59,54.4
				c5.3,0,8.2-6,8.2-16.3S64.3,21.7,59,21.7s-8.2,6-8.2,16.3S53.7,54.4,59,54.4z"/>
		</g>
		<g>
			<defs>
				<path id="SVGID_1_" d="M59,10.3c13.8,0,21.4,10.3,21.4,27.7S72.8,65.8,59,65.8S37.6,55.5,37.6,38.1S45.2,10.3,59,10.3z M59,54.4
					c5.3,0,8.2-6,8.2-16.3S64.3,21.7,59,21.7s-8.2,6-8.2,16.3S53.7,54.4,59,54.4z"/>
			</defs>
			<clipPath id="SVGID_00000133519497709994528730000016515769849274694545_">
				<use xlink:href="#SVGID_1_"  style="overflow:visible;"/>
			</clipPath>
			<g style="clip-path:url(#SVGID_00000133519497709994528730000016515769849274694545_);">
				<polygon class="st2" points="50.1,57.3 45.3,45.6 54.9,45.6 				"/>
				<polygon class="st4" points="50.1,57.3 45.3,68.9 54.9,68.9 				"/>
				<polygon class="st5" points="50.1,57.3 54.9,45.7 61.8,52.5 				"/>
				<polygon class="st6" points="50.1,57.3 38.5,62.1 45.3,68.9 				"/>
				<polygon class="st7" points="50.1,57.3 61.7,52.5 61.7,62.1 				"/>
				<polygon class="st7" points="50.1,57.3 38.5,52.5 38.5,62.1 				"/>
				<polygon class="st8" points="50.1,57.3 61.7,62.1 54.9,68.9 				"/>
				<polygon class="st9" points="50.1,57.3 45.3,45.6 38.5,52.5 				"/>
			</g>
		</g>
		<g>
			<defs>
				<path id="SVGID_00000044856363266917953730000016245305716438651798_" d="M59,10.3c13.8,0,21.4,10.3,21.4,27.7
					S72.8,65.8,59,65.8S37.6,55.5,37.6,38.1S45.2,10.3,59,10.3z M59,54.4c5.3,0,8.2-6,8.2-16.3S64.3,21.7,59,21.7s-8.2,6-8.2,16.3
					S53.7,54.4,59,54.4z"/>
			</defs>
			<clipPath id="SVGID_00000161620592261025690060000016705242179441012616_">
				<use xlink:href="#SVGID_00000044856363266917953730000016245305716438651798_"  style="overflow:visible;"/>
			</clipPath>
			<g style="clip-path:url(#SVGID_00000161620592261025690060000016705242179441012616_);">
				<rect x="71.7" y="25.9" transform="matrix(0.5751 -0.8181 0.8181 0.5751 9.2657 69.6296)" class="st11" width="0" height="0"/>
				<rect x="74.7" y="25.5" transform="matrix(0.9856 -0.1693 0.1693 0.9856 -3.2352 13.0171)" class="st11" width="0" height="0"/>
				<rect x="71.4" y="25.7" transform="matrix(0.6088 -0.7933 0.7933 0.6088 7.5366 66.691)" class="st11" width="0" height="0"/>
				<polygon class="st11" points="72.8,14.3 72.6,14.2 72.6,14.2 72.7,14.3 72.6,14.3 72.6,14.3 72.8,14.3 72.7,14.5 72.7,14.5 
					72.8,14.3 73.7,16.9 73.7,16.9 72.8,14.3 72.6,13.9 				"/>
				
					<rect x="70.7" y="19.2" transform="matrix(0.9915 -0.1305 0.1305 0.9915 -2.3093 9.4169)" class="st11" width="0" height="6.2"/>
				<rect x="71.1" y="25.5" transform="matrix(0.9913 -0.1317 0.1317 0.9913 -2.7425 9.5927)" class="st11" width="0" height="0"/>
				<polygon class="st11" points="65.4,49.9 65.4,49.9 65.4,49.9 65.4,49.9 65.4,49.9 				"/>
				<rect x="72.5" y="14.8" transform="matrix(0.4258 -0.9048 0.9048 0.4258 28.2667 74.1051)" class="st11" width="0" height="0"/>
				<rect x="71.6" y="29" transform="matrix(0.9859 -0.1671 0.1671 0.9859 -3.8453 12.3762)" class="st11" width="0" height="0"/>
				<rect x="77.6" y="25.1" transform="matrix(0.9894 -0.1455 0.1455 0.9894 -2.826 11.5551)" class="st11" width="0" height="0"/>
				
					<rect x="71.3" y="49.8" transform="matrix(0.6078 -0.7941 0.7941 0.6078 -11.6012 76.1319)" class="st11" width="0" height="0"/>
				<rect x="74.6" y="28.5" transform="matrix(0.6063 -0.7952 0.7952 0.6063 6.6712 70.5258)" class="st11" width="0" height="0"/>
				<rect x="70.6" y="50.2" transform="matrix(0.9913 -0.1319 0.1319 0.9913 -6.009 9.7484)" class="st11" width="0" height="0"/>
				<polygon class="st11" points="65.4,49.9 65.4,49.9 65.4,49.9 65.4,49.9 65.4,49.9 65.4,49.9 				"/>
				<rect x="71.6" y="14.7" transform="matrix(0.943 -0.3328 0.3328 0.943 -0.8029 24.6835)" class="st11" width="0" height="0"/>
				<rect x="65.2" y="33.8" transform="matrix(0.6114 -0.7913 0.7913 0.6114 -1.3816 64.7141)" class="st11" width="0" height="0"/>
				<polygon class="st11" points="67,35 67.2,35.9 67.2,35.9 67,35 67.5,35.4 67.5,35.4 67,35 67.8,34.9 67.9,34.9 67,35 67.3,34.6 
					67.3,34.6 67,35 66.9,35.2 				"/>
				<rect x="48.9" y="42.5" transform="matrix(0.3809 -0.9246 0.9246 0.3809 -9.0536 71.5262)" class="st11" width="0" height="0"/>
				<rect x="44.1" y="52.3" transform="matrix(0.9821 -0.1882 0.1882 0.9821 -9.0612 9.2299)" class="st11" width="0" height="0"/>
				
					<rect x="46.9" y="41.2" transform="matrix(0.5569 -0.8306 0.8306 0.5569 -13.4249 57.2018)" class="st11" width="0" height="0"/>
				<rect x="54.1" y="19.8" transform="matrix(0.5711 -0.8209 0.8209 0.5711 6.9303 52.8734)" class="st11" width="0" height="0"/>
				
					<rect x="50.2" y="43.4" transform="matrix(0.9224 -0.3862 0.3862 0.9224 -12.8697 22.7513)" class="st11" width="0" height="0"/>
				<rect x="72.8" y="48.9" transform="matrix(0.9906 -0.1369 0.1369 0.9906 -6.0025 10.4254)" class="st11" width="0" height="0"/>
				<rect x="55.8" y="13" transform="matrix(0.6081 -0.7938 0.7938 0.6081 11.5829 49.3923)" class="st11" width="0" height="0"/>
				
					<rect x="68.7" y="21.2" transform="matrix(0.6089 -0.7933 0.7933 0.6089 7.7964 63.9413)" class="st11" width="0" height="5.7"/>
				
					<rect x="68.3" y="25.5" transform="matrix(0.8508 -0.5255 0.5255 0.8508 -5.4387 40.325)" class="st11" width="0" height="8.4"/>
				<polygon class="st2" points="61,64.4 67.6,60 57.7,58 58.8,63.4 60,63.4 59.2,65.4 59.2,65.4 60,63.4 				"/>
				<polygon class="st4" points="77.2,60.4 77.2,60.4 77.2,60.5 72.3,57 68.3,59.6 67.6,60 77.6,62.1 77.3,60.5 77.2,60.5 				"/>
				<polygon class="st5" points="62.1,51.6 57.7,58 67.6,60 				"/>
				<polygon class="st6" points="73.2,68.5 77.6,62.1 67.7,60.1 				"/>
				<polygon class="st7" points="65.2,51 65.2,51 65,52.4 				"/>
				<polygon class="st7" points="66.9,52.5 66.9,52.5 66.6,52 66.4,52 65,52.4 63.3,51.4 63.4,51.3 63.4,51.3 63.3,51.4 63.3,51.3 
					62.1,51.6 67.6,60 68.8,54.4 66.5,52.8 				"/>
				<polygon class="st7" points="65.6,70 73.2,68.5 67.6,60.1 				"/>
				<polygon class="st8" points="72.3,57 68.8,54.4 67.6,60 68.3,59.6 72.3,57 				"/>
				<polygon class="st9" points="61.4,64.8 61.4,64.8 61.4,64.8 61.4,64.8 61.4,64.8 61.4,66.8 60.2,66.3 60.2,66.3 61.4,66.8 
					61.2,67 65.6,70 67.6,60 61,64.4 				"/>
				<polygon class="st2" points="51.6,31 51.6,31 51.6,31 51.6,31 46.4,29.6 41.2,37.3 56.2,34.4 53.3,30 51.6,31 				"/>
				<polygon class="st4" points="32.6,50 40.5,38.3 41.2,37.3 26.1,40.3 				"/>
				<polygon class="st12" points="32.6,50.1 32.6,50 32.6,50 				"/>
				<polygon class="st5" points="46.9,41.2 46.9,41.2 46.2,39.5 50.1,39.5 48.9,42.5 48.9,42.5 50.1,39.5 52.9,42.3 50.2,43.4 
					50.2,43.4 52.9,42.3 52.9,45.2 53.9,45.9 56.2,34.4 41.2,37.3 45.5,40.2 46.2,39.5 				"/>
				<polygon class="st6" points="28.4,28.7 26.1,40.3 41.1,37.3 				"/>
				<polygon class="st7" points="51.9,47.2 53.9,45.9 52.9,45.2 52.9,46.2 				"/>
				<polygon class="st7" points="44.1,52.3 44.1,52.3 44.1,52.3 44.1,52.4 49.2,49 46.2,49 48.2,44.2 49.9,48.5 49.9,48.5 
					48.2,44.2 52.9,46.2 48.2,44.2 47.8,44.1 48.2,44.2 43.5,46.2 43.5,42.3 43.5,42.3 43.5,42.3 43.5,42.3 43.5,42.3 45.5,40.2 
					41.2,37.3 44,52.2 44.1,52.3 				"/>
				<polygon class="st7" points="50.2,43.4 50.2,43.4 52.9,42.3 50.1,39.5 48.9,42.5 48.9,42.5 48.9,42.5 48.2,44.2 46.9,41.2 
					46.9,41.2 48.2,44.2 50.2,43.4 				"/>
				<polygon class="st7" points="38.2,22.2 28.4,28.7 41.1,37.3 				"/>
				
					<rect x="43.9" y="52.3" transform="matrix(0.9858 -0.1681 0.1681 0.9858 -8.1684 8.1392)" class="st13" width="0.1" height="0"/>
				<polygon class="st8" points="32.6,50 32.6,50 32.6,50 39.5,51.4 39.5,51.3 39.9,51.5 39.9,51.5 39.5,51.3 41.2,50.2 41.5,51.8 
					41.5,51.8 41.2,50.2 43.1,50.7 44,52.2 41.2,37.3 40.5,38.3 32.6,50 				"/>
				<polygon class="st13" points="42.2,52 42.2,52 43.1,50.7 				"/>
				<polygon class="st9" points="47.3,24.1 47.3,24.1 43.6,28.9 43,27.8 41.9,27.8 42.4,26.7 42.4,26.7 42.9,25.5 41.9,25.9 
					41.9,25.9 40.5,26.4 40.5,24.5 41.3,24.8 41.3,24.8 40.5,24.5 40.9,24.1 40,22.6 38.2,22.2 41.2,37.3 46.4,29.6 43.7,28.9 				
					"/>
				<polygon class="st2" points="65.2,33.8 65.2,33.8 64.9,33.6 65.7,33.1 70.9,26.4 70.9,26 61.1,27.3 64.9,33.8 64.9,33.6 				"/>
				
					<rect x="71.5" y="25.6" transform="matrix(0.6044 -0.7967 0.7967 0.6044 7.7438 67.1916)" class="st12" width="0" height="0.3"/>
				<polygon class="st12" points="77.3,17.9 77.3,17.9 77.4,17.9 				"/>
				<polygon class="st4" points="74.4,23.4 74.7,25.5 74.7,25.5 74.4,23.4 78.2,24.2 78.6,25 81.2,24.6 77.4,17.9 72.1,24.8 				"/>
				<polygon class="st12" points="77.6,25.1 78.2,24.2 77.6,25.1 				"/>
				<polygon class="st5" points="66.5,22.3 62.1,23.6 61.2,27.3 70.9,26 71,25.8 				"/>
				<polygon class="st14" points="75.2,28.4 77.6,25.1 77.6,25.1 75.2,28.4 75.2,28.5 75.2,28.5 75.2,28.4 75.2,28.5 75.2,28.5 
					75.2,28.4 75.3,28.5 75.3,28.5 75.2,28.4 80.3,27.6 80.2,27.7 80.4,27.6 81.2,24.6 78.6,25 80.3,27.5 				"/>
				<rect x="71.9" y="28.7" transform="matrix(0.5846 -0.8113 0.8113 0.5846 6.3389 70.3626)" class="st7" width="0" height="0.5"/>
				<rect x="72.1" y="28.7" transform="matrix(0.6063 -0.7952 0.7952 0.6063 6.03 69.6493)" class="st7" width="2.4" height="0"/>
				<polygon class="st13" points="73.7,16.9 74.5,19.1 73.7,16.9 				"/>
				
					<rect x="71.1" y="25.6" transform="matrix(0.9914 -0.1308 0.1308 0.9914 -2.7384 9.5427)" class="st13" width="0.3" height="0"/>
				<polygon class="st9" points="67.3,34.6 68.5,33 68.9,33.5 71,30.5 70.2,29.3 71.6,29 71.6,29 70.2,29.3 70.9,26.4 65.7,33.1 
					66.6,32.5 66.9,34.5 66.9,34.5 67,35 67.3,34.6 				"/>
				
					<rect x="65.5" y="33.6" transform="matrix(0.5758 -0.8176 0.8176 0.5758 8.547868e-03 67.979)" class="st15" width="0" height="0.8"/>
				<polygon class="st2" points="55.8,13 55.8,13 52.6,12.6 53.5,10.9 48.8,9.6 50.2,20.3 53.6,15.9 52.6,12.6 				"/>
				<polygon class="st12" points="51.6,31 51.6,31 51.6,31 				"/>
				<polygon class="st4" points="43.7,28.9 46.4,29.6 46.4,29.6 51.6,31 51,26.4 50.3,21.1 50.2,20.3 47.3,24.1 				"/>
				
					<rect x="56.7" y="12.2" transform="matrix(0.1066 -0.9943 0.9943 0.1066 37.6486 68.0125)" class="st16" width="0" height="1.7"/>
				
					<rect x="56.9" y="17.2" transform="matrix(0.7785 -0.6277 0.6277 0.7785 2.0914 40.4068)" class="st16" width="2.8" height="0"/>
				
					<rect x="53.9" y="19.5" transform="matrix(0.9597 -0.2809 0.2809 0.9597 -3.2838 16.0346)" class="st16" width="0.8" height="0"/>
				<rect x="56.9" y="18.4" transform="matrix(0.9852 -0.1713 0.1713 0.9852 -2.3062 10.0134)" class="st16" width="0" height="0"/>
				<polygon class="st5" points="54.4,18.8 54.4,18.8 52.3,19.2 52.7,17.3 53.8,16.6 53.6,15.9 50.2,20.3 52.8,20 52.3,19.2 				"/>
				<polygon class="st16" points="54.3,18.4 54.3,18.4 52.7,17.3 				"/>
				<path class="st6" d="M41.9,23.1l1,2.4l-1.6-0.7l0,0l1.6,0.7l-1,0.4l0,0l1-0.4l0.2-0.1l-0.2,0.1l0.9-2.1l0.1-0.2l0.3,0.3l1,1l0,0
					v0l0,0l0,0v1.9l-2.4-1l-0.5,1.2l0,0l0.5-1.2l1,2.4H43l0.6,1l3.7-4.8l2.9-3.8l-10.7,1.4l0.5,0.8l0.9,1.5L41.9,23.1z M43.8,23.1
					l-0.1,0.2l-0.9,2.1l-1-2.4h0.7H43.8z"/>
				<polygon class="st7" points="55.3,21.2 55.1,20.2 55.1,20.2 55.3,21.3 53.3,20.8 54.1,19.8 54.1,19.8 54.1,19.8 54.5,19.1 
					54.5,19.1 54.8,18.7 55,19.7 55,19.7 55,19.9 55,19.9 55,19.9 55,19.9 55,19.7 55,19.7 54.8,18.7 54.4,18.8 54.4,18.8 
					52.3,19.2 52.8,20 52.8,20 50.2,20.3 58.7,26.9 59.8,22.8 56.1,20.7 				"/>
				<polygon class="st7" points="41.6,13.8 39.5,21.7 50.2,20.3 				"/>
				<polygon class="st8" points="51.6,31 51.6,31 51.6,31 51.6,31 53.3,30 58.7,26.9 50.2,20.3 50.3,21.1 51,26.4 				"/>
				<polygon class="st9" points="50.2,20.3 48.8,9.6 41.6,13.8 				"/>
				<polygon class="st2" points="63.8,3.6 56.4,5.8 62.7,13.7 				"/>
				<polygon class="st4" points="66.5,22.3 69,21.6 66.2,18 63.2,14.3 62.7,13.7 61.6,23.8 62.1,23.6 66.5,22.3 				"/>
				<polygon class="st12" points="69,21.6 69,21.6 69,21.6 				"/>
				<polygon class="st5" points="70.6,7.4 63.8,3.6 62.7,13.7 				"/>
				<polygon class="st6" points="57.3,18.3 56.9,18.4 56.9,18.4 57.3,18.3 57.1,19.4 57.1,19.4 56.9,20.2 56.9,20.2 56.9,20.2 
					56.9,20.2 56.9,20.2 56.1,20.7 59.8,22.8 61.6,23.8 62.7,13.7 59.4,16.4 57.2,18.1 				"/>
				<polygon class="st6" points="55,19.9 55,19.9 55,19.7 55,19.7 54.8,18.7 54.5,19.1 54.1,19.8 54.1,19.8 53.3,20.8 55.3,21.3 
					55.1,20.2 55.1,20.2 55,19.9 				"/>
				
					<rect x="72.4" y="14.6" transform="matrix(0.4306 -0.9025 0.9025 0.4306 28.1318 73.8469)" class="st7" width="0.3" height="0"/>
				<path class="st7" d="M55.8,13l-3.2-0.3l1,3.3l0,0l0.2,0.7l0.6-0.4l0.4,2.5l-0.5-0.4l0,0l0.5,0.4l0.2,0.1l-0.2-0.1l2.1-0.4l0,0
					l0,0l0.4-0.1l-0.1-0.2l0,0l2.2-1.8l3.3-2.7l-5.2-0.6L55.8,13L55.8,13z M56.3,16.6l-1.5,2.1l-0.4-2.5L56.3,16.6z"/>
				<polygon class="st8" points="69,21.6 69,21.6 69,21.6 69,21.6 70.3,19.2 70.3,19.2 71.1,25.4 72.1,24.8 72.1,24.8 77.4,17.9 
					77.4,17.9 77.4,17.9 77.3,17.9 76.1,17.6 74.5,19.1 70.6,18.9 70.9,18.2 71.7,16.4 72.5,14.8 72.5,14.8 71.7,16.4 70.9,18.3 
					70.6,18.9 70.5,18.9 70.2,18.5 70.2,18.5 68.5,16.7 67.9,16 71.7,14.7 71.6,14.7 67.9,16 68,14.3 62.7,13.7 63.2,14.3 66.2,18 
									"/>
				<polygon class="st9" points="53.5,10.9 52.6,12.6 55.8,13 55.8,13 57.5,13.1 62.7,13.7 56.4,5.8 				"/>
				<polygon class="st2" points="77.2,60.4 77.2,60.5 77.3,60.5 90.3,58.4 81.2,43.7 				"/>
				<polygon class="st4" points="80.4,27.6 80.2,27.7 79.4,31.4 75.3,28.5 75.3,28.5 79.4,31.4 78.8,31.7 78.8,31.7 76.1,33.4 
					75.4,29.1 75.4,29.1 75.2,28.5 75.2,28.5 75.4,29.1 75.4,29.1 76.1,33.4 74.7,33.1 75.5,34.3 80.5,42.6 81.2,43.7 85.2,26.9 
									"/>
				<polygon class="st16" points="70.6,50.2 70.6,50.2 70.7,50.8 71.1,54.2 70.7,50.8 				"/>
				<polygon class="st5" points="72.3,57 77.2,60.5 77.2,60.4 81.2,43.7 74.9,47.5 75.5,48.5 72.8,48.9 72.8,48.9 75.5,48.5 
					74.5,52.3 71.3,49.8 71.3,49.8 74.5,52.3 73.6,52.8 71.1,54.2 69,53.7 69,53.7 67.3,53.2 68.8,51.3 68.8,51.3 68.8,51.3 
					69.7,50.2 69.7,50.2 69.7,50.1 70.4,49.2 67.7,49.5 67.9,50.2 66,50 65.4,49.9 65.4,49.9 65.4,49.9 65.4,49.9 65.4,49.9 66,50 
					67.9,50.2 67.7,50.5 66.9,51.9 66.2,51 66.1,50.8 65.4,49.9 65.4,49.9 66.1,50.8 66.2,51 66.9,51.9 66.6,52 66.9,52.5 
					66.9,52.5 66.5,52.8 68.8,54.4 68.8,54.4 72.3,57 				"/>
				<polygon class="st14" points="95.9,34.6 85.2,26.8 81.2,43.7 				"/>
				<polygon class="st7" points="65.7,47.3 65.7,47.3 65.8,47.3 65.8,47.3 66,47.5 67.4,48.3 66,49.4 65.4,49.9 65.4,49.9 
					65.4,49.9 66,49.4 67.4,48.3 67.7,49.5 67.7,49.5 70.4,49.2 69.7,50.1 69.7,50.2 69.7,50.2 68.8,51.3 68.8,51.3 68.8,51.3 
					68.8,51.3 69.7,50.2 69.7,50.2 69.7,50.1 70.4,49.2 70.6,50.2 70.6,50.2 70.4,49.2 70.4,48.8 70.4,49.2 66.4,46.1 69.7,44.1 
					69.7,44.1 69.8,44.1 69.8,44.1 69.8,44.1 73.5,45.1 70.4,49.2 71.3,49.8 71.3,49.8 71.3,49.8 74.5,52.3 75.5,48.5 72.8,48.9 
					72.8,48.9 72.8,48.9 70.4,49.2 73.5,45.1 74.9,47.5 81.2,43.7 64.4,39.7 65.6,47.4 65.7,47.3 				"/>
				<polygon class="st7" points="98.1,47.6 96,34.6 81.2,43.7 				"/>
				<rect x="72.1" y="28.9" transform="matrix(0.8533 -0.5214 0.5214 0.8533 -4.5066 41.8713)" class="st13" width="0" height="0"/>
				<path class="st8" d="M74.7,33.1l1.4,0.3l-0.7-4.3l0,0l-0.1-0.7l0,0l0,0.1L75,28.7L75,28.8l0,0L73.4,31l0,0l-1.1,1.5L72,32.2l0,0
					l-1-1.6l-2.2,3l0.7,1.1l-1.3,0.2l-0.4,0.1l0,0l0.4-0.1l1.3-0.2l-0.1,0.5l-0.3,1.4l-1.6-1.1l0,0l1.6,1.1l-1.7,1l-0.3-1.7l0,0
					L67,35l-0.1,0.2l-1.4,1.9l0,0l0,0l0,0l0.6,0.1l-1.7,2.4l16.8,4l-0.7-1.1l-5.1-8.2L74.7,33.1z M72.3,32.6L72.3,32.6L72.3,32.6
					L72.3,32.6z"/>
				<polygon class="st15" points="81.2,43.7 90.3,58.4 98.1,47.6 				"/>
				<polygon class="st2" points="70.6,50.2 70.6,50.2 70.4,49.2 69.7,50.1 69.7,50.2 69.7,50.2 68.8,51.3 68.8,51.3 67.3,53.2 
					69,53.7 69,53.7 71.1,54.2 70.7,50.8 				"/>
				<polygon class="st4" points="69.8,44.1 70.4,48.8 70.4,49.2 73.5,45.1 				"/>
				<polygon class="st12" points="69.7,44.1 69.7,44.1 69.8,44.1 				"/>
				<polygon class="st6" points="70.4,49.2 72.8,48.9 72.8,48.9 75.5,48.5 74.9,47.5 74.9,47.5 73.5,45.1 				"/>
				<polygon class="st8" points="69.8,44.1 69.8,44.1 69.7,44.1 66.4,46.1 70.4,49.2 70.4,48.8 69.8,44.1 				"/>
				<polygon class="st9" points="70.4,49.2 70.6,50.2 70.6,50.2 70.7,50.8 71.1,54.2 73.6,52.8 74.5,52.3 71.3,49.8 71.3,49.8 				
					"/>
				<polygon class="st2" points="77.6,25.1 77.6,25.1 75.2,28.4 80.3,27.5 78.6,25 78.6,25 78.2,24.2 				"/>
				<polygon class="st4" points="75.2,28.4 74.6,28.5 74.6,28.5 72.2,28.9 72.1,28.9 71.6,29 71.6,29 70.2,29.3 71,30.5 72,32.2 
					72,32.2 72.3,32.6 73.4,31 73.4,31 74.9,28.8 75,28.8 75,28.7 75.2,28.5 75.2,28.5 				"/>
				<polygon class="st12" points="72.3,32.6 72.3,32.6 72.3,32.6 				"/>
				<polygon class="st5" points="75.2,28.4 75.3,28.5 79.4,31.4 80.2,27.7 80.3,27.6 				"/>
				<polygon class="st6" points="70.9,26.4 70.2,29.3 71.6,29 71.6,29 72.2,28.9 72.2,28.9 74.6,28.5 74.6,28.5 74.6,28.5 
					75.2,28.4 74.7,25.5 74.7,25.5 75.2,28.4 71.7,25.9 71.7,25.9 71.7,25.9 71.4,25.7 71.4,25.7 71.1,25.5 71.1,25.5 71.1,25.5 
					71,25.8 71,25.8 70.9,26 70.9,26 70.9,26.4 				"/>
				<polygon class="st7" points="75.2,28.5 75.4,29.1 75.4,29.1 76.1,33.4 78.8,31.7 78.8,31.7 79.4,31.4 75.3,28.5 75.2,28.4 				
					"/>
				<polygon class="st7" points="74.4,23.4 72.1,24.8 72.1,24.8 71.1,25.4 71.1,25.4 70.3,19.2 69,21.6 69,21.6 69,21.6 69,21.6 
					69,21.6 66.5,22.3 71,25.8 71.1,25.5 71.1,25.5 71.1,25.5 71.1,25.5 71.4,25.7 71.4,25.7 71.7,25.9 71.7,25.9 75.2,28.4 
					74.7,25.5 74.7,25.5 				"/>
				<polygon class="st9" points="77.6,25.1 78.2,24.2 74.4,23.4 74.7,25.5 74.7,25.5 75.2,28.4 77.6,25.1 				"/>
				<polygon class="st2" points="67.3,34.6 67,35 67.9,34.9 68.2,34.8 69.5,34.6 68.9,33.5 68.5,33 				"/>
				<polygon class="st12" points="67,35 64.5,35.5 65.6,37.1 66.9,35.2 				"/>
				<polygon class="st12" points="65.6,37.1 65.6,37.1 65.6,37.1 				"/>
				<polygon class="st5" points="67.5,35.4 69.1,36.5 69.4,35.2 69.5,34.6 68.2,34.8 67.8,34.9 67,35 				"/>
				<polygon class="st14" points="65.2,33.8 64.9,33.6 64.9,33.8 64.5,35.5 67,35 65.8,34.2 65.2,33.8 				"/>
				<polygon class="st7" points="67.2,35.9 67.5,37.6 69.1,36.5 67.5,35.4 67,35 				"/>
				<polygon class="st7" points="65.7,33.1 65.7,33.1 64.9,33.6 65.2,33.8 65.2,33.8 65.8,34.2 67,35 66.9,34.5 66.6,32.5 				"/>
				<polygon class="st2" points="42.2,52 41.6,52.7 43.9,52.3 44.1,52.3 44.1,52.3 44.1,52.3 44,52.2 44,52.2 43.1,50.7 				"/>
				<polygon class="st4" points="40.1,54.8 41.5,52.9 41.6,52.7 39.1,53.2 				"/>
				<polygon class="st12" points="40.1,54.8 40.1,54.8 40.1,54.8 				"/>
				<polygon class="st5" points="44.1,52.3 44.1,52.3 43.9,52.3 41.6,52.7 43.7,54.2 44.1,52.4 44.1,52.3 				"/>
				<polygon class="st6" points="39.5,51.4 39.1,53.2 41.6,52.7 39.9,51.5 39.5,51.3 				"/>
				<polygon class="st7" points="42,55.3 43.7,54.2 41.6,52.7 				"/>
				<polygon class="st7" points="39.5,51.3 39.9,51.5 41.6,52.7 41.5,51.8 41.2,50.2 				"/>
				<polygon class="st8" points="40.1,54.8 40.1,54.8 40.1,54.8 42,55.3 41.6,52.7 41.5,52.9 40.1,54.8 				"/>
				<polygon class="st9" points="41.2,50.2 41.5,51.8 41.6,52.7 42.2,52 43.1,50.7 				"/>
				<polygon class="st2" points="65,52.4 65.2,51 65.4,49.9 63.4,51.3 63.3,51.4 				"/>
				<polygon class="st12" points="65.7,47.3 65.7,47.3 65.7,47.3 				"/>
				<polygon class="st4" points="65.4,49.9 65.4,49.9 66,49.4 67.4,48.3 66,47.5 65.8,47.3 65.7,47.7 65.4,49.7 65.4,49.9 
					65.4,49.9 				"/>
				<polygon class="st8" points="63.4,51.3 65.4,49.9 62.9,49.5 63.3,51.3 63.3,51.4 				"/>
				<polygon class="st6" points="67.4,48.3 66,49.4 65.4,49.9 65.4,49.9 65.4,49.9 66,50 67.9,50.2 67.7,49.5 67.7,49.5 				"/>
				<polygon class="st7" points="62.9,49.5 65.4,49.9 63.9,47.8 				"/>
				<polygon class="st7" points="65.4,49.9 66.1,50.8 66.2,51 66.9,51.9 67.7,50.5 67.9,50.2 66,50 65.4,49.9 65.4,49.9 				"/>
				<polygon class="st5" points="65.8,47.3 65.8,47.3 65.7,47.3 65.7,47.3 65.6,47.4 63.9,47.8 65.4,49.9 65.4,49.7 65.7,47.7 				
					"/>
				<polygon class="st9" points="66.4,52 66.6,52 66.9,51.9 66.2,51 66.1,50.8 65.4,49.9 65.4,49.9 65.2,51 65,52.4 				"/>
				<polygon class="st2" points="56.6,64.8 56.6,66.8 59,65.8 				"/>
				<polygon class="st12" points="61.4,64.8 61.4,64.8 61.4,64.8 				"/>
				<polygon class="st4" points="61.4,64.8 59.3,65.7 59.2,65.7 59,65.8 60.2,66.3 61.4,66.8 				"/>
				<polygon class="st5" points="58,63.4 56.7,64.8 59,65.8 				"/>
				<polygon class="st14" points="60.2,66.3 59,65.8 60,68.2 61.2,67 61.4,66.8 				"/>
				<polygon class="st7" points="58.8,63.4 58,63.4 59,65.8 59.2,65.4 60,63.4 				"/>
				<polygon class="st7" points="58,68.2 60,68.2 59,65.8 				"/>
				<polygon class="st8" points="61.4,64.8 61.4,64.8 61.4,64.8 61.4,64.8 61,64.4 61,64.4 60,63.4 59.2,65.4 59,65.8 59.2,65.7 
					59.3,65.7 				"/>
				<polygon class="st15" points="58,68.2 59,65.8 56.6,66.8 				"/>
				<polygon class="st2" points="41.3,24.8 40.5,24.5 40.5,26.4 41.9,25.9 42.9,25.5 				"/>
				<polygon class="st4" points="45.2,24.5 43.1,25.4 42.9,25.5 45.2,26.4 				"/>
				<polygon class="st12" points="45.2,24.5 45.2,24.5 45.2,24.5 				"/>
				<polygon class="st5" points="41.9,23.1 40.9,24.1 40.5,24.5 41.3,24.8 42.9,25.5 				"/>
				<polygon class="st7" points="42.9,25.5 43.7,23.4 43.8,23.1 42.6,23.1 41.9,23.1 				"/>
				<polygon class="st7" points="42.9,25.5 42.4,26.7 41.9,27.8 43,27.8 43.8,27.8 				"/>
				<polygon class="st8" points="45.2,24.5 45.2,24.5 45.2,24.5 44.2,23.4 43.8,23.1 43.7,23.4 42.9,25.5 43.1,25.4 45.2,24.5 				
					"/>
				<polygon class="st2" points="54.3,18.4 54.8,18.7 54.4,16.2 53.8,16.6 52.7,17.3 				"/>
				<polygon class="st12" points="56.9,20.2 56.9,20.2 56.9,20.2 				"/>
				<polygon class="st4" points="55,19.7 55,19.9 55,19.9 55.1,20.2 55.3,21.2 56.1,20.7 56.9,20.2 56,19.6 56,19.6 55.7,19.4 
					55.7,19.4 55,18.9 54.8,18.7 55,19.7 				"/>
				<polygon class="st5" points="54.8,18.7 56.3,16.6 54.4,16.2 				"/>
				<polygon class="st8" points="55.7,19.4 56,19.6 56,19.6 56.9,20.2 56.9,20.2 56.9,20.2 56.9,20.2 57.1,19.4 57.1,19.4 
					57.3,18.3 56.9,18.4 56.9,18.4 54.8,18.7 55,18.9 55.7,19.4 				"/>
				<polygon class="st9" points="52.3,19.2 54.4,18.8 54.8,18.7 54.3,18.4 52.7,17.3 				"/>
				<polygon class="st2" points="48.2,44.2 49.9,48.5 50.1,49 51.9,47.2 52.9,46.2 				"/>
				<polygon class="st12" points="43.5,42.3 43.5,42.3 43.5,42.3 				"/>
				<polygon class="st4" points="47.8,44.1 48.2,44.2 46.9,41.2 46.9,41.2 46.2,39.5 45.5,40.2 45.5,40.2 43.5,42.3 				"/>
				<polygon class="st5" points="46.2,49 49.2,49 50.1,49 49.9,48.5 48.2,44.2 				"/>
				<polygon class="st6" points="48.2,44.2 48.9,42.5 48.9,42.5 50.1,39.5 46.2,39.5 46.9,41.2 46.9,41.2 				"/>
				<polygon class="st8" points="43.5,42.3 43.5,42.3 43.5,42.3 43.5,46.2 48.2,44.2 47.8,44.1 43.5,42.3 				"/>
				<polygon class="st9" points="50.2,43.4 50.2,43.4 48.2,44.2 52.9,46.2 52.9,45.2 52.9,45.2 52.9,42.3 				"/>
				<polygon class="st2" points="72.8,14.3 72.7,14.5 72.5,14.8 72.5,14.8 71.7,16.4 70.9,18.2 70.6,18.9 74.5,19.1 73.7,16.9 				
					"/>
				<polygon class="st12" points="72,12.1 72.6,13.9 72.8,14.3 74.9,9.7 71.2,9.5 71.1,9.5 				"/>
				<polygon class="st12" points="71,9.5 71,9.5 71,9.5 				"/>
				<polygon class="st5" points="72.7,14.5 72.8,14.3 72.6,14.3 71.7,14.7 71.7,14.7 67.9,16 68.5,16.7 70.2,18.5 70.2,18.5 
					70.5,18.9 70.6,18.9 70.9,18.3 71.7,16.4 72.5,14.8 72.5,14.8 				"/>
				<polygon class="st14" points="77.6,12.6 74.9,9.7 72.8,14.3 				"/>
				<polygon class="st7" points="71.6,14.7 71.6,14.7 71.7,14.7 72.6,14.3 72.6,14.3 72.7,14.3 72.6,14.2 72.6,14.2 68.1,12.1 
					71,9.5 71,9.5 71,9.5 71,9.5 71.1,9.5 71.2,9.5 70.6,7.4 62.7,13.7 68,14.3 68,14.3 67.9,16 				"/>
				<polygon class="st7" points="77.4,16.5 77.6,12.6 72.8,14.3 				"/>
				<polygon class="st13" points="72.6,13.9 72,12.1 71.1,9.5 71,9.5 71,9.5 71,9.5 68.1,12.1 72.6,14.2 72.8,14.3 				"/>
				<polygon class="st9" points="74.5,19.1 76.1,17.6 77.4,16.5 72.8,14.3 73.7,16.9 				"/>
			</g>
		</g>
	</g>
</g>
<g>
	<rect x="-49" y="72.3" class="st11" width="191.2" height="14.6"/>
	<path class="st1" d="M5.9,79.1l2.6-2.6c0.5-0.5,0.8-1,0.8-1.5c0-0.7-0.5-1.2-1.3-1.2c-0.6,0-1.1,0.2-1.7,0.6l-0.5-1
		c0.8-0.5,1.7-0.7,2.5-0.7c1.4,0,2.3,0.9,2.3,2.2c0,0.8-0.4,1.5-1,2.2l-1.9,1.9h3v1.1H5.9V79.1z"/>
	<path class="st1" d="M16.9,72.6c1.8,0,2.8,1.4,2.8,3.8c0,2.3-1,3.8-2.8,3.8s-2.8-1.4-2.8-3.8C14.1,74,15.1,72.6,16.9,72.6z
		 M16.9,78.9c0.9,0,1.5-1,1.5-2.6c0-1.6-0.6-2.6-1.5-2.6s-1.5,1-1.5,2.6C15.4,77.9,16,78.9,16.9,78.9z"/>
	<path class="st1" d="M25.3,72.6c1.8,0,2.8,1.4,2.8,3.8c0,2.3-1,3.8-2.8,3.8s-2.8-1.4-2.8-3.8C22.5,74,23.5,72.6,25.3,72.6z
		 M25.3,78.9c0.9,0,1.5-1,1.5-2.6c0-1.6-0.6-2.6-1.5-2.6s-1.5,1-1.5,2.6C23.8,77.9,24.4,78.9,25.3,78.9z"/>
	<path class="st1" d="M32.5,75.7H33c0.8,0,1.4-0.4,1.4-1.1c0-0.6-0.4-1-1.1-1c-0.6,0-1.1,0.2-1.8,0.5l-0.4-1
		c0.8-0.4,1.7-0.5,2.4-0.5c1.3,0,2.3,0.8,2.3,2c0,0.8-0.5,1.4-1.2,1.7c0.8,0.3,1.3,1,1.3,1.8c0,1.2-1,2.1-2.4,2.1
		c-0.8,0-1.7-0.2-2.6-0.6l0.4-1c0.7,0.3,1.3,0.5,1.9,0.5c0.7,0,1.3-0.5,1.3-1.1c0-0.7-0.6-1.2-1.5-1.2h-0.5V75.7z"/>
	<path class="st1" d="M45.5,72h1.2v10.4h-1.2V72z"/>
	<path class="st1" d="M57,79.1l2.6-2.6c0.5-0.5,0.8-1,0.8-1.5c0-0.7-0.5-1.2-1.3-1.2c-0.6,0-1.1,0.2-1.7,0.6l-0.5-1
		c0.8-0.5,1.7-0.7,2.5-0.7c1.4,0,2.3,0.9,2.3,2.2c0,0.8-0.4,1.5-1,2.2l-1.9,1.9h3v1.1H57V79.1z"/>
	<path class="st1" d="M67.9,72.6c1.8,0,2.8,1.4,2.8,3.8c0,2.3-1,3.8-2.8,3.8s-2.8-1.4-2.8-3.8C65.2,74,66.2,72.6,67.9,72.6z
		 M67.9,78.9c0.9,0,1.5-1,1.5-2.6c0-1.6-0.6-2.6-1.5-2.6s-1.5,1-1.5,2.6C66.5,77.9,67,78.9,67.9,78.9z"/>
	<path class="st1" d="M73.7,79.1l2.6-2.6c0.5-0.5,0.8-1,0.8-1.5c0-0.7-0.5-1.2-1.3-1.2c-0.6,0-1.1,0.2-1.7,0.6l-0.5-1
		c0.8-0.5,1.7-0.7,2.5-0.7c1.4,0,2.3,0.9,2.3,2.2c0,0.8-0.4,1.5-1,2.2l-1.9,1.9h3v1.1h-4.8V79.1z"/>
	<path class="st1" d="M83.6,75.7h0.5c0.8,0,1.4-0.4,1.4-1.1c0-0.6-0.4-1-1.1-1c-0.6,0-1.1,0.2-1.8,0.5l-0.4-1
		c0.8-0.4,1.7-0.5,2.4-0.5c1.3,0,2.3,0.8,2.3,2c0,0.8-0.5,1.4-1.2,1.7c0.8,0.3,1.3,1,1.3,1.8c0,1.2-1,2.1-2.4,2.1
		c-0.8,0-1.7-0.2-2.6-0.6l0.4-1c0.7,0.3,1.3,0.5,1.9,0.5c0.7,0,1.3-0.5,1.3-1.1c0-0.7-0.6-1.2-1.5-1.2h-0.5V75.7z"/>
</g>
<g>
	<rect x="100.9" y="16.8" class="st11" width="191.2" height="45.9"/>
	<path class="st1" d="M136.3,17.1c1.3,0,2.6,0.4,3.8,1.2l-1.1,1.8c-0.8-0.5-1.5-0.8-2.4-0.8c-1.8,0-3,1.2-3,3c0,1.8,1.2,3,3,3
		c0.8,0,1.6-0.3,2.4-0.8l1.1,1.8c-1.2,0.8-2.5,1.2-3.8,1.2c-3.2,0-5.4-2.2-5.4-5.2C130.9,19.3,133.1,17.1,136.3,17.1z"/>
	<path class="st1" d="M144.4,17.3h7.3v2h-4.6v1.9h4.1v2h-4.1v2.1h4.8v2h-7.5V17.3z"/>
	<path class="st1" d="M156.5,17.3h2.7v8h4.1v2.1h-6.8V17.3z"/>
	<path class="st1" d="M167.6,17.3h7.3v2h-4.6v1.9h4.1v2h-4.1v2.1h4.8v2h-7.5V17.3z"/>
	<path class="st1" d="M179.7,17.3h4.7c2,0,3.4,1.1,3.4,2.7c0,1-0.5,1.7-1.2,2.1c1,0.4,1.6,1.3,1.6,2.4c0,1.7-1.5,2.9-3.5,2.9h-4.9
		V17.3z M182.4,21.3h1.7c0.7,0,1.1-0.4,1.1-1c0-0.6-0.5-1-1.1-1h-1.7V21.3z M182.4,25.4h1.9c0.8,0,1.3-0.5,1.3-1.2s-0.5-1.1-1.3-1.1
		h-1.9V25.4z"/>
	<path class="st1" d="M192.8,17.3h4.6c2.1,0,3.7,1.4,3.7,3.3c0,1.5-0.8,2.6-2.1,3l2.6,3.8h-3l-2.1-3.3h-0.9v3.3h-2.6V17.3z
		 M195.4,21.9h1.5c0.8,0,1.4-0.5,1.4-1.3c0-0.8-0.6-1.3-1.4-1.3h-1.5V21.9z"/>
	<path class="st1" d="M208.7,17.3h2.5l4.1,10.1h-2.7l-0.8-2h-3.7l-0.8,2h-2.8L208.7,17.3z M208.8,23.4h2.3l-1.1-3.1L208.8,23.4z"/>
	<path class="st1" d="M220.1,19.4h-2.9v-2.1h8.6v2.1h-2.9v8h-2.7V19.4z"/>
	<path class="st1" d="M230.1,17.3h2.7v10.1h-2.7V17.3z"/>
	<path class="st1" d="M237.9,17.3h2.6l4.6,6.3v-6.3h2.5v10.1H245l-4.6-6.3v6.3h-2.5V17.3z"/>
	<path class="st1" d="M261.8,26.7c-1.3,0.6-2.6,0.9-4,0.9c-3.3,0-5.6-2.2-5.6-5.2c0-3.1,2.3-5.2,5.5-5.2c1.3,0,2.6,0.4,3.9,1.1
		l-1,1.8c-1-0.5-1.8-0.8-2.6-0.8c-1.9,0-3.2,1.3-3.2,3.1c0,1.9,1.3,3.1,3.2,3.1c0.5,0,0.9-0.1,1.3-0.2v-1.8h-2v-2h4.5V26.7z"/>
	<path class="st1" d="M125.2,37.4h-2.9v-2.1h8.6v2.1h-2.9v8h-2.7V37.4z"/>
	<path class="st1" d="M146.8,45.4h-2.7l-1.8-6.8l-1.8,6.8h-2.7l-3.2-10.1h2.7l1.8,6.8l1.8-6.8h2.5l1.8,6.8l1.8-6.8h2.7L146.8,45.4z"
		/>
	<path class="st1" d="M154,35.3h7.3v2h-4.6v1.9h4.1v2h-4.1v2.1h4.8v2H154V35.3z"/>
	<path class="st1" d="M166.1,35.3h2.6l4.6,6.3v-6.3h2.5v10.1h-2.6l-4.6-6.3v6.3h-2.5V35.3z"/>
	<path class="st1" d="M183.1,37.4h-2.9v-2.1h8.6v2.1h-2.9v8h-2.7V37.4z"/>
	<path class="st1" d="M195.9,41.5l-3.7-6.2h3l2.1,3.8l2.1-3.8h3l-3.7,6.2v3.9h-2.8V41.5z"/>
	<path class="st1" d="M214.5,41.5l-3.7-6.2h3l2.1,3.8l2.1-3.8h3l-3.7,6.2v3.9h-2.8V41.5z"/>
	<path class="st1" d="M224.7,35.3h7.3v2h-4.6v1.9h4.1v2h-4.1v2.1h4.8v2h-7.5V35.3z"/>
	<path class="st1" d="M239.7,35.3h2.5l4.1,10.1h-2.7l-0.8-2h-3.7l-0.8,2h-2.8L239.7,35.3z M239.8,41.4h2.3l-1.1-3.1L239.8,41.4z"/>
	<path class="st1" d="M250.1,35.3h4.6c2.1,0,3.7,1.4,3.7,3.3c0,1.5-0.8,2.6-2.1,3l2.6,3.8h-3l-2.1-3.3h-0.9v3.3h-2.6V35.3z
		 M252.8,39.9h1.5c0.8,0,1.4-0.5,1.4-1.3c0-0.8-0.6-1.3-1.4-1.3h-1.5V39.9z"/>
	<path class="st1" d="M266.6,35.1c1.2,0,2.4,0.2,3.6,0.7l-0.6,2c-1-0.4-2-0.6-2.8-0.6c-0.9,0-1.5,0.3-1.5,0.9c0,1.6,5.3,0.3,5.3,4.3
		c0,1.9-1.6,3.1-4,3.1c-1.2,0-2.6-0.3-4-0.8l0.6-2c1.2,0.4,2.3,0.7,3.2,0.7c1,0,1.5-0.4,1.5-1c0-1.7-5.3-0.4-5.3-4.3
		C262.7,36.4,264.3,35.1,266.6,35.1z"/>
</g>
<g>
	<g>
		<path class="st1" d="M140.1,76.3V75l5.3-5.3l-6.9-6.9h1.6v-0.8c0-1.5,0.4-2.6,1.1-3.3c0.7-0.7,1.9-1.1,3.5-1.1h3v3.4h-0.5
			c-0.7,0-1.2,0.1-1.4,0.3c-0.2,0.2-0.4,0.6-0.4,1.2v0.4h2.3v1.9c0.1-0.1,0.3-0.3,0.4-0.4c1.4-1.3,3.2-1.9,5.6-1.9
			c2.4,0,4.2,0.6,5.6,1.9c0.7,0.6,1.2,1.4,1.5,2.2c0.3-0.9,0.9-1.6,1.5-2.2c1.4-1.3,3.3-1.9,5.7-1.9c2.2,0,3.9,0.5,5.3,1.5
			c0.8,0.6,1.4,1.3,1.7,2.2v-3.2h5.4v7c0,1,0.1,1.7,0.4,2.1c0.3,0.4,0.8,0.6,1.4,0.6c0.7,0,1.2-0.2,1.5-0.7c0.3-0.5,0.5-1.1,0.5-2.1
			v-7h5.4v2c0.3-0.5,0.7-1,1.3-1.4c1.1-0.8,2.8-1.1,5-1.1c2,0,3.6,0.4,4.7,1.1c1.1,0.7,1.7,1.8,1.9,3.2h-4.8c0-0.4-0.2-0.7-0.5-1
			c-0.3-0.2-0.7-0.4-1.2-0.4c-0.5,0-0.8,0.1-1.1,0.2c-0.3,0.2-0.4,0.4-0.4,0.7c0,0.5,0.7,1,2.1,1.3c0.5,0.1,0.9,0.2,1.2,0.3
			c2.1,0.5,3.4,1,4.1,1.7c0.7,0.6,1,1.5,1,2.7c0,1.5-0.6,2.7-1.8,3.5c-1.2,0.8-3,1.2-5.4,1.2c-2.2,0-3.9-0.4-5-1.2
			c-0.4-0.3-0.8-0.7-1.1-1.1v1.8h-4.9V75c0-0.2,0-0.4,0-0.5c0-0.2,0.1-0.3,0.1-0.5c-0.6,0.9-1.3,1.6-2.1,2.1
			c-0.8,0.5-1.8,0.7-2.8,0.7c-1,0-1.8-0.2-2.6-0.7c-0.8-0.4-1.4-1-1.7-1.8c-0.2-0.4-0.4-0.9-0.5-1.5l0-0.1c-0.3,1-0.9,1.9-1.8,2.6
			c-1.3,1-3.1,1.5-5.2,1.5c-2.4,0-4.3-0.7-5.7-2c-0.7-0.6-1.2-1.4-1.6-2.3c-0.3,0.9-0.9,1.6-1.5,2.3c-1.4,1.3-3.2,1.9-5.6,1.9
			c-2.4,0-4.2-0.6-5.6-1.9c-1.4-1.3-2-3.1-2-5.3c0-1.4,0.3-2.7,0.8-3.7h-1.5v10.5H140.1z M151.5,69.5c0,1.3,0.2,2.2,0.5,2.7
			c0.3,0.5,0.9,0.8,1.7,0.8c0.8,0,1.3-0.3,1.7-0.8c0.4-0.6,0.5-1.4,0.5-2.7c0-1.2-0.2-2.1-0.5-2.7c-0.4-0.5-0.9-0.8-1.7-0.8
			c-0.8,0-1.4,0.3-1.7,0.8C151.7,67.4,151.5,68.3,151.5,69.5 M170.1,71h5c0-0.4,0-0.8,0-1.2v-1.9h-5c0-0.6-0.2-1.1-0.5-1.4
			c-0.3-0.3-0.8-0.5-1.4-0.5c-0.8,0-1.4,0.3-1.7,0.8c-0.4,0.6-0.5,1.4-0.5,2.6c0,1.2,0.2,2.1,0.5,2.7c0.3,0.6,0.9,0.8,1.7,0.8
			c0.6,0,1.1-0.2,1.5-0.5C169.8,72.2,170,71.7,170.1,71 M189.6,72.1h4.4c0,0.6,0.1,1,0.4,1.3c0.3,0.3,0.7,0.4,1.3,0.4
			c0.6,0,1-0.1,1.3-0.3c0.3-0.2,0.5-0.5,0.5-0.9c0-0.6-0.7-1-2.1-1.3c-0.3-0.1-0.5-0.1-0.7-0.1c-2.2-0.5-3.7-1-4.5-1.6
			c-0.3-0.2-0.5-0.5-0.7-0.8V72.1z"/>
		<polygon class="st1" points="143.4,69.7 139.2,74 139.2,65.4 		"/>
		<g>
			<path class="st1" d="M218.4,77c0,3.3-2.6,5.6-6.3,5.6c-1.5,0-3.2-0.4-5.1-1.2l0.4-1.1c1.7,0.7,3.3,1.1,4.5,1.1
				c3,0,5.1-1.8,5.1-4.5v-3.2c-0.9,1.8-2.7,2.9-4.8,2.9c-3.6,0-6.1-3-6.1-7.1c0-4.2,2.5-7.2,6.1-7.2c2.2,0,3.9,1.1,4.9,3l0.2-2.6
				h1.1V77z M212.5,75.6c2.7,0,4.6-2,4.6-4.8v-2.5c0-2.8-1.9-4.8-4.6-4.8c-2.9,0-5,2.5-5,6C207.5,73.1,209.6,75.6,212.5,75.6z"/>
			<path class="st1" d="M223.3,62.8h1.1l0.2,2.9c0.6-1.9,2.3-3.1,4.4-3.1c0.5,0,1.2,0.1,1.7,0.3l-0.2,1.1c-0.5-0.1-1.1-0.2-1.6-0.2
				c-2.5,0-4.2,2.1-4.2,5.1v7.6h-1.4V62.8z"/>
			<path class="st1" d="M239.1,62.4c3.9,0,6.6,3,6.6,7.2c0,4.2-2.7,7.1-6.6,7.1s-6.7-3-6.7-7.1C232.5,65.4,235.2,62.4,239.1,62.4z
				 M239.1,75.6c3.1,0,5.3-2.5,5.3-6c0-3.6-2.2-6-5.3-6c-3.1,0-5.3,2.5-5.3,6C233.8,73.1,236,75.6,239.1,75.6z"/>
			<path class="st1" d="M260.9,76.4h-1.1l-0.2-2.8c-0.9,2-2.8,3.2-5.1,3.2c-3,0-5.1-2.1-5.1-5v-9h1.4v8.8c0,2.3,1.7,4,4.1,4
				c2.7,0,4.7-2,4.7-5v-7.8h1.4V76.4z"/>
			<path class="st1" d="M265.8,62.8h1.1l0.2,2.6c1-1.9,2.7-3,4.9-3c3.5,0,6.1,3,6.1,7.2c0,4.2-2.5,7.1-6.1,7.1c-2.1,0-3.9-1-4.8-2.9
				v8.4h-1.4V62.8z M271.7,63.5c-2.7,0-4.6,2-4.6,4.8v2.5c0,2.8,1.9,4.8,4.6,4.8c2.9,0,5-2.5,5-6C276.7,66.1,274.6,63.5,271.7,63.5z
				"/>
		</g>
	</g>
	<g>
		<polygon class="st17" points="128.1,57.6 120.7,57.6 124.4,66.5 		"/>
		<polygon class="st17" points="120.7,76.3 128,76.3 124.6,68 124.4,67.4 		"/>
		<polygon class="st17" points="133.6,63 128.4,57.8 124.7,66.6 		"/>
		<polygon class="st17" points="115.2,71 120.4,76.2 124,67.3 		"/>
		<polygon class="st17" points="124.8,67 133.7,70.7 133.7,63.3 		"/>
		<polygon class="st17" points="115,63.3 115,70.7 123.9,67 		"/>
		<polygon class="st17" points="133.6,71 124.7,67.3 125,67.9 128.4,76.2 		"/>
		<polygon class="st17" points="128.4,76.2 125,67.9 128.4,76.2 		"/>
		<polygon class="st17" points="120.4,57.8 115.2,63 124.1,66.7 		"/>
	</g>
</g>
<g>
</g>
<g>
</g>
<g>
</g>
<g>
</g>
<g>
</g>
<g>
</g>
<g>
</g>
<g>
</g>
<g>
</g>
<g>
</g>
<g>
</g>
<g>
</g>
<g>
</g>
<g>
</g>
<g>
</g>
</svg>
