<?xml version="1.0" encoding="utf-8"?>
<!-- Generator: Adobe Illustrator 26.3.1, SVG Export Plug-In . SVG Version: 6.00 Build 0)  -->
<svg version="1.1" id="Layer_1" xmlns="http://www.w3.org/2000/svg" xmlns:xlink="http://www.w3.org/1999/xlink" x="0px" y="0px"
	 viewBox="0 0 391 83" style="enable-background:new 0 0 391 83;" xml:space="preserve">
<style type="text/css">
	.st0{fill:#2A3E46;}
	.st1{fill:#E20713;}
</style>
<g>
	<g>
		<path class="st0" d="M31.9,17.6c1.3,1.4,2,3.7,2,6.8V40h-1.2V24.4c0-2.9-0.6-4.9-1.7-6c-1.1-1.2-2.7-1.8-4.8-1.8
			c-1.8,0-3.3,0.4-4.6,1.2c-1.3,0.8-2.3,1.8-3,2.9c-0.6,1.2-1,2.3-1.1,3.3v16h-1.2V24c0-2.7-0.6-4.6-1.7-5.7s-2.8-1.6-4.9-1.6
			c-1.7,0-3.1,0.4-4.3,1.3s-2.1,1.9-2.8,3.2c-0.7,1.2-1.1,2.5-1.4,3.7V40H0V15.9h1.2v5.7c0.8-1.8,1.9-3.3,3.4-4.4s3.2-1.7,5.2-1.7
			c2.1,0,3.8,0.5,5,1.4c1.3,0.9,2.1,2.4,2.5,4.3c0.4-1.1,1.1-2.1,2-2.9c0.9-0.9,1.9-1.5,3.1-2s2.5-0.7,3.9-0.7
			C28.7,15.4,30.6,16.2,31.9,17.6z"/>
		<path class="st0" d="M40.2,21.2c0.9-1.8,2.1-3.3,3.7-4.3s3.4-1.5,5.5-1.5s3.9,0.5,5.5,1.5s2.8,2.4,3.7,4.3
			c0.9,1.8,1.3,3.9,1.3,6.2v0.9c0,2.3-0.4,4.4-1.3,6.2c-0.9,1.8-2.1,3.3-3.7,4.3s-3.4,1.5-5.5,1.5s-3.9-0.5-5.5-1.5
			s-2.9-2.4-3.7-4.3s-1.3-3.9-1.3-6.2v-0.9C38.9,25.1,39.3,23.1,40.2,21.2z M41.2,33.8c0.8,1.7,1.8,3,3.3,4c1.4,1,3.1,1.5,5,1.5
			s3.5-0.5,4.9-1.5s2.5-2.3,3.2-4c0.8-1.7,1.1-3.5,1.1-5.4v-0.9c0-1.9-0.4-3.7-1.1-5.4c-0.8-1.6-1.8-3-3.3-4c-1.4-1-3.1-1.5-5-1.5
			s-3.5,0.5-5,1.5c-1.4,1-2.5,2.3-3.3,4c-0.8,1.6-1.1,3.4-1.1,5.4v0.9C40.1,30.4,40.5,32.2,41.2,33.8z"/>
		<path class="st0" d="M82.7,5.8V40h-1.2v-3.9c-0.8,1.3-1.9,2.4-3.3,3.2s-3,1.2-4.9,1.2S69.8,40,68.5,39c-1.4-1-2.4-2.5-3.1-4.3
			c-0.7-1.9-1.1-4-1.1-6.5v-0.5c0-2.5,0.4-4.7,1.1-6.6c0.7-1.8,1.8-3.3,3.1-4.2c1.4-1,3-1.5,4.9-1.5s3.6,0.4,4.9,1.3
			c1.4,0.9,2.5,2.1,3.2,3.6V5.8H82.7z M78.5,37.8c1.4-1,2.4-2.2,3-3.8V22.7c-0.6-1.7-1.5-3.2-2.8-4.3c-1.3-1.2-3.1-1.7-5.4-1.7
			c-1.7,0-3.2,0.5-4.3,1.4c-1.2,0.9-2,2.2-2.6,3.9c-0.6,1.7-0.9,3.6-0.9,5.8v0.5c0,2.2,0.3,4.1,0.9,5.8s1.4,3,2.6,3.9
			s2.6,1.4,4.3,1.4C75.4,39.2,77.2,38.8,78.5,37.8z"/>
		<path class="st0" d="M89.2,27.5v1c0,2,0.4,3.8,1.2,5.5s2,3,3.4,3.9c1.4,1,3,1.4,4.7,1.4c1.5,0,2.8-0.2,4-0.7s2.2-1.4,3.2-2.6
			l0.8,0.6c-0.8,1.2-1.9,2.2-3.3,2.9s-2.9,1-4.7,1c-1.9,0-3.7-0.5-5.3-1.5c-1.6-1-2.9-2.5-3.8-4.3S88,30.8,88,28.5v-1
			c0-2.3,0.5-4.4,1.4-6.2c0.9-1.8,2.1-3.3,3.7-4.3c1.5-1,3.2-1.5,5.1-1.5c1.8,0,3.3,0.4,4.7,1.3c1.4,0.9,2.5,2.1,3.3,3.6
			s1.2,3.4,1.2,5.4v1.4H89.2V27.5z M93.9,17.9c-1.3,0.8-2.3,1.9-3.1,3.3c-0.8,1.4-1.3,3-1.5,4.7h16.8v-0.3c0-1.6-0.3-3.1-1-4.5
			s-1.6-2.5-2.8-3.3s-2.6-1.2-4.2-1.2C96.6,16.6,95.1,17.1,93.9,17.9z"/>
		<path class="st0" d="M123.2,15.7l-0.1,1.1c-0.6-0.1-1.1-0.1-1.6-0.1c-2.2,0-3.9,0.7-5.2,2.1s-2.2,3.2-2.6,5.5V40h-1.2V15.9h1.2v5
			c0.7-1.7,1.7-3.1,3-4s2.9-1.4,4.8-1.4C122.2,15.4,122.8,15.5,123.2,15.7z"/>
		<path class="st0" d="M142.8,17.6c1.3,1.4,2,3.7,2,6.8V40h-1.2V24.4c0-2.9-0.6-4.9-1.7-6.1c-1.1-1.2-2.7-1.7-4.8-1.7
			c-1.6,0-3,0.4-4.2,1.2c-1.2,0.8-2.1,1.9-2.8,3.1s-1.2,2.4-1.5,3.6V40h-1.2V15.9h1.2v5.6c0.8-1.8,1.9-3.2,3.4-4.4
			c1.5-1.1,3.2-1.7,5.2-1.7C139.6,15.4,141.5,16.2,142.8,17.6z"/>
		<path class="st0" d="M169.3,17.6c1.3,1.4,2,3.8,2,7.1V40h-6.7V24.7c0-1.4-0.3-2.4-0.9-3c-0.6-0.6-1.6-0.8-2.8-0.8
			c-0.9,0-1.6,0.2-2.3,0.6c-0.6,0.4-1.2,0.9-1.6,1.6v17h-6.7V15.9h6.3l0.2,2.8c0.8-1.1,1.9-1.9,3-2.4c1.2-0.5,2.5-0.8,3.9-0.8
			C166.1,15.4,168,16.2,169.3,17.6z"/>
		<path class="st0" d="M196.8,30.1h-15.2c0.3,1.5,0.9,2.7,1.9,3.6s2.3,1.3,3.8,1.3c1.2,0,2.2-0.2,3.2-0.7c1-0.4,1.8-1.1,2.5-2
			l3.2,3.7c-0.8,1.2-2.1,2.2-3.7,3.1c-1.6,0.8-3.5,1.2-5.7,1.2c-2.5,0-4.6-0.5-6.4-1.6c-1.8-1-3.2-2.5-4.2-4.2
			c-1-1.8-1.5-3.8-1.5-5.9v-0.8c0-2.4,0.5-4.6,1.4-6.4c0.9-1.9,2.2-3.4,3.9-4.4c1.7-1.1,3.7-1.6,6.1-1.6c2.3,0,4.2,0.5,5.8,1.4
			c1.6,1,2.8,2.3,3.7,4.1s1.2,3.9,1.2,6.3V30.1z M190.2,25.1c0-1.3-0.4-2.3-1.1-3.1c-0.7-0.8-1.7-1.1-3.1-1.1c-1.3,0-2.3,0.4-3,1.3
			c-0.7,0.8-1.2,2-1.4,3.5h8.6V25.1z"/>
		<path class="st0" d="M212.2,34.8v5.1c-1.2,0.4-2.5,0.6-4,0.6c-4.7,0-7.1-2.4-7.1-7.2V20.8h-3.4v-4.9h3.4v-6h6.7v6h4.1v4.9h-4.1
			v11.7c0,1,0.2,1.6,0.6,2c0.4,0.3,1,0.5,1.9,0.5C211,34.9,211.6,34.9,212.2,34.8z"/>
		<path class="st0" d="M245.2,15.9l-6,24.1h-4.1h-1.5l-4.4-14.8L224.7,40h-3.5h-2.1l-6-24.1h6.5l3,15l4.2-15h4.3h0.6l4.2,15l3-15
			H245.2z"/>
		<path class="st0" d="M248.2,21.4c0.9-1.9,2.2-3.3,3.9-4.4s3.8-1.6,6.2-1.6s4.5,0.5,6.2,1.6s3,2.5,3.9,4.4s1.3,4,1.3,6.3v0.5
			c0,2.4-0.5,4.5-1.3,6.3c-0.9,1.9-2.2,3.3-3.9,4.4c-1.7,1.1-3.8,1.6-6.2,1.6c-2.4,0-4.5-0.5-6.2-1.6s-3-2.5-3.9-4.4s-1.3-4-1.3-6.3
			v-0.5C246.9,25.4,247.3,23.3,248.2,21.4z M254.8,33.2c0.8,1.2,2,1.9,3.6,1.9s2.8-0.6,3.6-1.9c0.8-1.2,1.1-2.9,1.1-5v-0.5
			c0-2.1-0.4-3.7-1.1-5s-2-1.9-3.6-1.9s-2.8,0.6-3.6,1.9s-1.1,2.9-1.1,5v0.5C253.6,30.3,254,31.9,254.8,33.2z"/>
		<path class="st0" d="M286.2,15.5c0.4,0.1,0.7,0.1,0.9,0.2l-0.1,6.5c-0.9-0.1-1.7-0.2-2.4-0.2c-2.4,0-4,0.8-4.7,2.4V40h-6.7V15.9
			h6.3l0.2,2.9c0.6-1.1,1.3-1.9,2.3-2.5c0.9-0.6,1.9-0.9,3.1-0.9C285.4,15.4,285.8,15.5,286.2,15.5z"/>
		<path class="st0" d="M298.6,30.5l-2.3,2.3V40h-6.7V5.7h6.7v18.7l1.1-1.4l6-7.2h8.1l-8.6,10l9.3,14.1h-7.7L298.6,30.5z"/>
		<path class="st0" d="M313.2,23c0-1.4,0.4-2.6,1.2-3.8c0.8-1.1,1.9-2.1,3.4-2.7c1.5-0.7,3.2-1,5.1-1c2.1,0,3.9,0.3,5.4,1
			c1.5,0.7,2.7,1.6,3.6,2.8c0.8,1.2,1.2,2.5,1.2,4h-6.7c0-1-0.3-1.7-0.9-2.3c-0.6-0.5-1.5-0.8-2.7-0.8c-1,0-1.8,0.2-2.4,0.7
			s-0.9,1.1-0.9,1.8c0,0.7,0.3,1.3,1,1.7c0.7,0.4,1.8,0.8,3.4,1.1c1.9,0.4,3.5,0.8,4.8,1.4s2.4,1.4,3.2,2.4s1.2,2.3,1.2,3.9
			c0,1.4-0.4,2.7-1.3,3.8c-0.8,1.1-2,2-3.6,2.6s-3.4,1-5.4,1c-2.2,0-4-0.4-5.6-1.2s-2.8-1.8-3.6-3.1c-0.8-1.2-1.2-2.5-1.2-3.9h6.4
			c0,1.2,0.5,2,1.2,2.6c0.8,0.6,1.8,0.8,3,0.8c1.1,0,2-0.2,2.6-0.7c0.6-0.4,0.9-1,0.9-1.8c0-0.5-0.1-0.9-0.4-1.2s-0.8-0.6-1.5-0.9
			s-1.7-0.6-3-0.8C316,29.1,313.2,26.7,313.2,23z"/>
	</g>
	<path class="st1" d="M349.5,76.5c-3.2,7.2-16.6,8.6-29.9,3.2S298.2,64,301.4,56.8c3.2-7.2,16.6-8.6,29.9-3.2
		C344.6,59,352.8,69.3,349.5,76.5"/>
	<path class="st1" d="M386.9,67.2c-2.4,5.6-12.5,6.7-22.4,2.5c-10-4.2-16.1-12.1-13.6-17.6c2.4-5.5,12.5-6.7,22.4-2.5
		C383.2,53.8,389.3,61.7,386.9,67.2"/>
	<path class="st1" d="M390.6,42.3c-1.9,4.2-9.5,5-17.1,1.9s-12.3-9.1-10.4-13.3c1.8-4.2,9.5-5,17.1-1.9
		C387.8,32.2,392.5,38.1,390.6,42.3"/>
	<path class="st1" d="M368.9,20.5c-1.3,3-6.9,3.6-12.4,1.3c-5.5-2.2-8.9-6.5-7.5-9.4c1.3-3,6.9-3.6,12.4-1.3
		C366.9,13.3,370.3,17.6,368.9,20.5"/>
	<path class="st1" d="M342.9,7.7c-1,2.1-4.9,2.5-8.9,0.9c-3.9-1.6-6.4-4.6-5.4-6.7s4.9-2.5,8.9-0.9C341.4,2.6,343.8,5.6,342.9,7.7"
		/>
</g>
</svg>
